# xmcd
#
# Track frame offsets: 
#        150
#        19058
#        43796
#        73029
#        97020
#        116650
#        141325
#        166077
#        198027
#        227259
#        258286
#        275472
#        299570
#        328172
#
# Disc length: 4745 seconds
#
# Revision: 0
# Processed by: cddbd v1.5.1PL0 Copyright (c) Steve Scherf et al.
# Submitted via: ExactAudioCopy v0.95a5
#
DISCID=cb12870e
DTITLE=The Ryan Montbleau Band - The Friends of Mine Compilation
DYEAR=2004
DGENRE=
TTITLE0=Any Blues
TTITLE1=It's All Been Done Before
TTITLE2=Stretch
TTITLE3=Inspired By No One
TTITLE4=L.I.D.S.
TTITLE5=I'm Around
TTITLE6=Honeymoon Eyes
TTITLE7=Shuffling Paper
TTITLE8=Tuesday Morning
TTITLE9=Dancing in the Sunshine
TTITLE10=Just Perfect
TTITLE11=Quickie
TTITLE12=A Way With Women
TTITLE13=Any Blues
EXTD=
EXTT0=
EXTT1=
EXTT2=
EXTT3=
EXTT4=
EXTT5=
EXTT6=
EXTT7=
EXTT8=
EXTT9=
EXTT10=
EXTT11=
EXTT12=
EXTT13=
PLAYORDER=
